<svg width="1200" height="630" viewBox="0 0 1200 630" fill="none" xmlns="http://www.w3.org/2000/svg">
<rect x="880" y="313" width="130" height="4" fill="#ECECEC"/>
<rect x="190" y="313" width="130" height="4" fill="#ECECEC"/>
<path d="M188 314.5C188 365.576 146.372 407 95 407C43.6276 407 2 365.576 2 314.5C2 263.424 43.6276 222 95 222C146.372 222 188 263.424 188 314.5Z" fill="white" stroke="url(#paint0_linear_304_172)" stroke-width="4"/>
<path d="M1198 314.5C1198 365.576 1156.37 407 1105 407C1053.63 407 1012 365.576 1012 314.5C1012 263.424 1053.63 222 1105 222C1156.37 222 1198 263.424 1198 314.5Z" fill="white" stroke="url(#paint1_linear_304_172)" stroke-width="4"/>
<path d="M718.305 246.009C756.785 313.211 778.063 381.774 781.469 438.211C784.887 494.854 770.305 538.266 738.413 556.832C706.521 575.398 661.943 566.425 615.002 535.118C568.231 503.926 519.983 451.064 481.503 383.861C443.023 316.659 421.745 248.097 418.339 191.66C414.92 135.016 429.503 91.6041 461.394 73.0384C493.286 54.4728 537.864 63.4454 584.806 94.7521C631.576 125.945 679.825 178.806 718.305 246.009Z" stroke="#1979BD" stroke-width="6"/>
<path d="M718.402 383.99C679.922 451.193 631.674 504.055 584.903 535.247C537.962 566.554 493.384 575.527 461.492 556.961C429.6 538.395 415.018 494.983 418.436 438.34C421.842 381.903 443.121 313.34 481.6 246.138C520.08 178.935 568.329 126.074 615.099 94.8811C662.041 63.5744 706.619 54.6018 738.511 73.1674C770.403 91.7331 784.985 135.145 781.566 191.789C778.161 248.226 756.882 316.788 718.402 383.99Z" stroke="#1979BD" stroke-opacity="0.5" stroke-width="6"/>
<path d="M600 452.616C523.047 452.616 453.528 436.917 403.358 411.676C353.014 386.347 323 351.907 323 314.745C323 277.583 353.014 243.143 403.358 217.814C453.528 192.573 523.047 176.874 600 176.874C676.953 176.874 746.472 192.573 796.642 217.814C846.986 243.143 877 277.583 877 314.745C877 351.907 846.986 386.347 796.642 411.676C746.472 436.917 676.953 452.616 600 452.616Z" stroke="#1979BD" stroke-opacity="0.8" stroke-width="6"/>
<circle cx="748.566" cy="560.453" r="51" fill="white" stroke="#1979BD" stroke-width="8"/>
<circle cx="471.598" cy="560.453" r="51" fill="white" stroke="#8CBCDE" stroke-width="8"/>
<circle cx="748.566" cy="88.5674" r="51" fill="white" stroke="#8CBCDE" stroke-width="8"/>
<circle cx="472" cy="89" r="51" fill="white" stroke="#1979BD" stroke-width="8"/>
<path d="M469.002 72.48H466.942V85.6H469.002V72.48ZM456.482 78.2C456.482 76.54 457.662 75.46 459.262 75.46C460.842 75.46 462.042 76.54 462.042 78.2C462.042 79.84 460.842 80.94 459.262 80.94C457.662 80.94 456.482 79.84 456.482 78.2ZM464.042 78.2C464.042 75.56 461.982 73.68 459.262 73.68C456.542 73.68 454.462 75.56 454.462 78.2C454.462 80.82 456.542 82.72 459.262 82.72C461.982 82.72 464.042 80.82 464.042 78.2ZM459.282 88.52V84.28H457.202V90.2H469.522V88.52H459.282ZM478.02 76.16H481.04V74.46H472.76V76.16H476.02V77.16C476.02 80.74 474.88 83.88 472.26 85.4L473.52 86.94C475.3 85.88 476.46 84.04 477.08 81.74C477.74 83.74 478.86 85.38 480.58 86.32L481.78 84.74C479.16 83.38 478.02 80.42 478.02 77.16V76.16ZM486.06 72.46V79.6H484.08V72.8H482.14V89.7H484.08V81.3H486.06V90.54H488.02V72.46H486.06Z" fill="#1979BD"/>
<path d="M446.62 111.786L447.628 111.338C446.424 109.336 445.864 106.97 445.864 104.618C445.864 102.28 446.424 99.914 447.628 97.898L446.62 97.464C445.318 99.578 444.548 101.86 444.548 104.618C444.548 107.404 445.318 109.658 446.62 111.786ZM449.496 112.122H451.106V109.63L451.05 108.314C451.708 108.874 452.394 109.182 453.08 109.182C454.816 109.182 456.398 107.67 456.398 105.024C456.398 102.658 455.306 101.104 453.36 101.104C452.492 101.104 451.652 101.58 450.98 102.14H450.938L450.812 101.3H449.496V112.122ZM452.772 107.852C452.296 107.852 451.708 107.67 451.106 107.152V103.386C451.75 102.756 452.324 102.448 452.926 102.448C454.214 102.448 454.732 103.442 454.732 105.052C454.732 106.858 453.892 107.852 452.772 107.852ZM461.521 109.182C462.529 109.182 463.411 108.846 464.125 108.37L463.565 107.348C463.005 107.712 462.417 107.922 461.731 107.922C460.401 107.922 459.477 107.04 459.351 105.57H464.349C464.391 105.374 464.433 105.066 464.433 104.744C464.433 102.574 463.327 101.104 461.283 101.104C459.491 101.104 457.769 102.658 457.769 105.15C457.769 107.698 459.435 109.182 461.521 109.182ZM459.337 104.45C459.491 103.106 460.345 102.364 461.311 102.364C462.431 102.364 463.033 103.134 463.033 104.45H459.337ZM466.231 109H467.841V104.198C468.317 102.98 469.073 102.546 469.703 102.546C470.011 102.546 470.207 102.588 470.473 102.672L470.767 101.272C470.529 101.16 470.277 101.104 469.899 101.104C469.073 101.104 468.261 101.692 467.715 102.686H467.673L467.547 101.3H466.231V109ZM473.963 109.182C475.867 109.182 476.889 108.132 476.889 106.844C476.889 105.388 475.699 104.912 474.621 104.506C473.781 104.198 473.025 103.946 473.025 103.288C473.025 102.756 473.417 102.336 474.271 102.336C474.901 102.336 475.447 102.616 475.979 103.008L476.735 102.014C476.119 101.524 475.265 101.104 474.243 101.104C472.535 101.104 471.499 102.07 471.499 103.358C471.499 104.66 472.633 105.206 473.669 105.598C474.495 105.92 475.363 106.228 475.363 106.928C475.363 107.516 474.929 107.964 474.005 107.964C473.179 107.964 472.507 107.614 471.821 107.082L471.065 108.118C471.821 108.734 472.899 109.182 473.963 109.182ZM481.684 109.182C483.588 109.182 485.31 107.712 485.31 105.15C485.31 102.588 483.588 101.104 481.684 101.104C479.78 101.104 478.058 102.588 478.058 105.15C478.058 107.712 479.78 109.182 481.684 109.182ZM481.684 107.866C480.48 107.866 479.724 106.788 479.724 105.15C479.724 103.526 480.48 102.434 481.684 102.434C482.902 102.434 483.658 103.526 483.658 105.15C483.658 106.788 482.902 107.866 481.684 107.866ZM487.203 109H488.813V103.54C489.485 102.854 489.975 102.49 490.689 102.49C491.599 102.49 491.991 103.022 491.991 104.352V109H493.601V104.156C493.601 102.196 492.873 101.104 491.235 101.104C490.185 101.104 489.401 101.678 488.687 102.364H488.645L488.519 101.3H487.203V109ZM496.374 111.786C497.69 109.658 498.46 107.404 498.46 104.618C498.46 101.86 497.69 99.578 496.374 97.464L495.366 97.898C496.57 99.914 497.13 102.28 497.13 104.618C497.13 106.97 496.57 109.336 495.366 111.338L496.374 111.786Z" fill="#999999"/>
<path d="M440.103 549.38H448.663V552.34H440.103V549.38ZM445.403 557.64V554H450.703V544.68H448.663V547.72H440.103V544.68H438.063V554H443.343V557.64H436.223V559.34H452.583V557.64H445.403ZM465.122 551.74C462.442 550.86 460.902 548.66 460.902 546.34V544.4H458.822V546.18C458.822 548.78 457.282 551.24 454.442 552.22L455.542 553.86C457.622 553.1 459.102 551.54 459.902 549.58C460.662 551.28 462.102 552.66 464.042 553.36L465.122 551.74ZM462.902 559.92C460.382 559.92 458.922 559.3 458.922 558.14C458.922 557.02 460.382 556.38 462.902 556.38C465.422 556.38 466.882 557.02 466.882 558.14C466.882 559.3 465.422 559.92 462.902 559.92ZM462.902 554.76C459.182 554.76 456.882 556.02 456.882 558.14C456.882 560.28 459.182 561.54 462.902 561.54C466.642 561.54 468.922 560.28 468.922 558.14C468.922 556.02 466.642 554.76 462.902 554.76ZM468.722 547.94V543.46H466.662V554.32H468.722V549.64H471.282V547.94H468.722ZM482.56 551.22C483 548.88 483 547.1 483 545.88V544.84H473.92V546.52H480.98C480.96 547.64 480.9 549.06 480.54 551L482.56 551.22ZM484.06 552.12C482.28 552.4 480.34 552.52 478.46 552.6V548.96H476.42V552.66C475.14 552.7 473.9 552.7 472.82 552.7L473.04 554.38C476.18 554.38 480.44 554.28 484.2 553.62L484.06 552.12ZM477.62 555.84H475.54V561.2H487.82V559.52H477.62V555.84ZM487.24 549.2V543.48H485.16V557.04H487.24V550.9H489.64V549.2H487.24ZM494.518 551.78H500.818V545.08H492.398V546.76H498.738V550.12H492.438V557.28H493.978C497.158 557.28 499.858 557.18 502.958 556.64L502.738 554.96C499.878 555.42 497.378 555.56 494.518 555.58V551.78ZM504.238 543.44V561.58H506.318V543.44H504.238Z" fill="#1979BD"/>
<path d="M446.648 582.786L447.656 582.338C446.452 580.336 445.892 577.97 445.892 575.618C445.892 573.28 446.452 570.914 447.656 568.898L446.648 568.464C445.346 570.578 444.576 572.86 444.576 575.618C444.576 578.404 445.346 580.658 446.648 582.786ZM449.525 580H451.135V575.198C451.611 573.98 452.367 573.546 452.997 573.546C453.305 573.546 453.501 573.588 453.767 573.672L454.061 572.272C453.823 572.16 453.571 572.104 453.193 572.104C452.367 572.104 451.555 572.692 451.009 573.686H450.967L450.841 572.3H449.525V580ZM458.309 580.182C459.317 580.182 460.199 579.846 460.913 579.37L460.353 578.348C459.793 578.712 459.205 578.922 458.519 578.922C457.189 578.922 456.265 578.04 456.139 576.57H461.137C461.179 576.374 461.221 576.066 461.221 575.744C461.221 573.574 460.115 572.104 458.071 572.104C456.279 572.104 454.557 573.658 454.557 576.15C454.557 578.698 456.223 580.182 458.309 580.182ZM456.125 575.45C456.279 574.106 457.133 573.364 458.099 573.364C459.219 573.364 459.821 574.134 459.821 575.45H456.125ZM464.265 580H466.127L467.065 576.206C467.261 575.478 467.401 574.764 467.555 573.966H467.625C467.793 574.764 467.933 575.464 468.115 576.192L469.095 580H471.027L473.015 572.3H471.503L470.509 576.458C470.341 577.214 470.215 577.914 470.061 578.656H470.005C469.823 577.914 469.669 577.214 469.487 576.458L468.381 572.3H466.897L465.805 576.458C465.623 577.2 465.469 577.914 465.301 578.656H465.245C465.105 577.914 464.979 577.214 464.825 576.458L463.803 572.3H462.179L464.265 580ZM476.282 580.182C477.206 580.182 478.032 579.72 478.732 579.118H478.788L478.914 580H480.23V575.366C480.23 573.322 479.348 572.104 477.43 572.104C476.198 572.104 475.12 572.608 474.322 573.112L474.924 574.204C475.582 573.784 476.338 573.42 477.15 573.42C478.284 573.42 478.606 574.204 478.62 575.1C475.414 575.45 474.014 576.304 474.014 577.956C474.014 579.314 474.952 580.182 476.282 580.182ZM476.772 578.908C476.086 578.908 475.568 578.6 475.568 577.844C475.568 576.976 476.338 576.388 478.62 576.122V578.012C477.99 578.586 477.444 578.908 476.772 578.908ZM482.515 580H484.125V575.198C484.601 573.98 485.357 573.546 485.987 573.546C486.295 573.546 486.491 573.588 486.757 573.672L487.051 572.272C486.813 572.16 486.561 572.104 486.183 572.104C485.357 572.104 484.545 572.692 483.999 573.686H483.957L483.831 572.3H482.515V580ZM490.753 580.182C491.621 580.182 492.419 579.72 492.993 579.132H493.049L493.175 580H494.491V568.842H492.881V571.698L492.951 572.972C492.321 572.44 491.761 572.104 490.879 572.104C489.157 572.104 487.575 573.658 487.575 576.15C487.575 578.712 488.821 580.182 490.753 580.182ZM491.131 578.852C489.927 578.852 489.241 577.886 489.241 576.136C489.241 574.47 490.109 573.448 491.187 573.448C491.761 573.448 492.307 573.63 492.881 574.148V577.914C492.321 578.558 491.775 578.852 491.131 578.852ZM497.345 582.786C498.661 580.658 499.431 578.404 499.431 575.618C499.431 572.86 498.661 570.578 497.345 568.464L496.337 568.898C497.541 570.914 498.101 573.28 498.101 575.618C498.101 577.97 497.541 580.336 496.337 582.338L497.345 582.786Z" fill="#999999"/>
<path d="M744.022 82.58H746.082V71.48H744.022V74.56H741.402V76.22H744.022V77.86H741.402V79.52H744.022V82.58ZM735.222 74.44H737.522V79.88C736.742 79.92 735.982 79.94 735.222 79.96V74.44ZM741.542 79.56C740.882 79.64 740.202 79.7 739.502 79.74V74.44H741.122V72.76H731.602V74.44H733.242V80C732.502 80 731.782 80 731.122 80L731.362 81.7C734.262 81.7 738.262 81.64 741.662 81.06L741.542 79.56ZM740.062 87.96C737.482 87.96 736.042 87.34 736.042 86.24C736.042 85.1 737.482 84.5 740.062 84.5C742.642 84.5 744.102 85.1 744.102 86.24C744.102 87.34 742.642 87.96 740.062 87.96ZM740.062 82.9C736.282 82.9 733.982 84.12 733.982 86.24C733.982 88.32 736.282 89.54 740.062 89.54C743.842 89.54 746.162 88.32 746.162 86.24C746.162 84.12 743.842 82.9 740.062 82.9ZM750.4 73.38V75.06H756.72C756.3 79.22 753.92 82.4 749.5 84.66L750.64 86.24C756.54 83.26 758.78 78.62 758.78 73.38H750.4ZM766.24 78.6H763.5V71.46H761.44V89.52H763.5V80.32H766.24V78.6Z" fill="#1979BD"/>
<path d="M711.411 110.786L712.419 110.338C711.215 108.336 710.655 105.97 710.655 103.618C710.655 101.28 711.215 98.914 712.419 96.898L711.411 96.464C710.109 98.578 709.339 100.86 709.339 103.618C709.339 106.404 710.109 108.658 711.411 110.786ZM717.493 108.182C718.501 108.182 719.383 107.846 720.097 107.37L719.537 106.348C718.977 106.712 718.389 106.922 717.703 106.922C716.373 106.922 715.449 106.04 715.323 104.57H720.321C720.363 104.374 720.405 104.066 720.405 103.744C720.405 101.574 719.299 100.104 717.255 100.104C715.463 100.104 713.741 101.658 713.741 104.15C713.741 106.698 715.407 108.182 717.493 108.182ZM715.309 103.45C715.463 102.106 716.317 101.364 717.283 101.364C718.403 101.364 719.005 102.134 719.005 103.45H715.309ZM723.897 108H725.759L728.419 100.3H726.851L725.535 104.444C725.325 105.2 725.087 105.984 724.863 106.74H724.807C724.583 105.984 724.359 105.2 724.135 104.444L722.819 100.3H721.167L723.897 108ZM731.338 108.182C732.262 108.182 733.088 107.72 733.788 107.118H733.844L733.97 108H735.286V103.366C735.286 101.322 734.404 100.104 732.486 100.104C731.254 100.104 730.176 100.608 729.378 101.112L729.98 102.204C730.638 101.784 731.394 101.42 732.206 101.42C733.34 101.42 733.662 102.204 733.676 103.1C730.47 103.45 729.07 104.304 729.07 105.956C729.07 107.314 730.008 108.182 731.338 108.182ZM731.828 106.908C731.142 106.908 730.624 106.6 730.624 105.844C730.624 104.976 731.394 104.388 733.676 104.122V106.012C733.046 106.586 732.5 106.908 731.828 106.908ZM739.167 108.182C739.573 108.182 739.839 108.126 740.035 108.056L739.825 106.838C739.685 106.866 739.629 106.866 739.559 106.866C739.363 106.866 739.181 106.712 739.181 106.278V96.842H737.571V106.194C737.571 107.44 738.005 108.182 739.167 108.182ZM744.008 108.182C745.058 108.182 745.814 107.65 746.514 106.838H746.556L746.682 108H747.998V100.3H746.388V105.648C745.744 106.46 745.254 106.796 744.54 106.796C743.63 106.796 743.252 106.264 743.252 104.948V100.3H741.642V105.144C741.642 107.104 742.356 108.182 744.008 108.182ZM752.242 108.182C753.166 108.182 753.992 107.72 754.692 107.118H754.748L754.874 108H756.19V103.366C756.19 101.322 755.308 100.104 753.39 100.104C752.158 100.104 751.08 100.608 750.282 101.112L750.884 102.204C751.542 101.784 752.298 101.42 753.11 101.42C754.244 101.42 754.566 102.204 754.58 103.1C751.374 103.45 749.974 104.304 749.974 105.956C749.974 107.314 750.912 108.182 752.242 108.182ZM752.732 106.908C752.046 106.908 751.528 106.6 751.528 105.844C751.528 104.976 752.298 104.388 754.58 104.122V106.012C753.95 106.586 753.404 106.908 752.732 106.908ZM760.832 108.182C761.392 108.182 761.91 108.042 762.344 107.902L762.05 106.712C761.826 106.81 761.49 106.894 761.224 106.894C760.426 106.894 760.104 106.418 760.104 105.494V101.588H762.106V100.3H760.104V98.172H758.76L758.578 100.3L757.374 100.384V101.588H758.494V105.48C758.494 107.104 759.096 108.182 760.832 108.182ZM763.793 108H765.403V100.3H763.793V108ZM764.591 98.858C765.179 98.858 765.599 98.48 765.599 97.892C765.599 97.318 765.179 96.94 764.591 96.94C764.003 96.94 763.597 97.318 763.597 97.892C763.597 98.48 764.003 98.858 764.591 98.858ZM770.893 108.182C772.797 108.182 774.519 106.712 774.519 104.15C774.519 101.588 772.797 100.104 770.893 100.104C768.989 100.104 767.267 101.588 767.267 104.15C767.267 106.712 768.989 108.182 770.893 108.182ZM770.893 106.866C769.689 106.866 768.933 105.788 768.933 104.15C768.933 102.526 769.689 101.434 770.893 101.434C772.111 101.434 772.867 102.526 772.867 104.15C772.867 105.788 772.111 106.866 770.893 106.866ZM776.412 108H778.022V102.54C778.694 101.854 779.184 101.49 779.898 101.49C780.808 101.49 781.2 102.022 781.2 103.352V108H782.81V103.156C782.81 101.196 782.082 100.104 780.444 100.104C779.394 100.104 778.61 100.678 777.896 101.364H777.854L777.728 100.3H776.412V108ZM785.583 110.786C786.899 108.658 787.669 106.404 787.669 103.618C787.669 100.86 786.899 98.578 785.583 96.464L784.575 96.898C785.779 98.914 786.339 101.28 786.339 103.618C786.339 105.97 785.779 108.336 784.575 110.338L785.583 110.786Z" fill="#999999"/>
<path d="M755.201 543.46H753.141V552.64H755.201V543.46ZM742.661 548.14C742.661 546.7 743.821 545.76 745.381 545.76C746.961 545.76 748.141 546.7 748.141 548.14C748.141 549.58 746.961 550.52 745.381 550.52C743.821 550.52 742.661 549.58 742.661 548.14ZM750.141 548.14C750.141 545.76 748.121 544.06 745.381 544.06C742.661 544.06 740.661 545.76 740.661 548.14C740.661 550.52 742.661 552.2 745.381 552.2C748.121 552.2 750.141 550.52 750.141 548.14ZM745.421 559.7V558.1H755.201V553.46H743.361V555.08H753.161V556.58H743.401V561.32H755.741V559.7H745.421Z" fill="#1979BD"/>
<path d="M735.487 582.786L736.495 582.338C735.291 580.336 734.731 577.97 734.731 575.618C734.731 573.28 735.291 570.914 736.495 568.898L735.487 568.464C734.185 570.578 733.415 572.86 733.415 575.618C733.415 578.404 734.185 580.658 735.487 582.786ZM738.921 583.318C740.629 583.318 741.245 582.184 741.245 580.574V572.3H739.635V580.602C739.635 581.512 739.439 582.03 738.725 582.03C738.473 582.03 738.235 581.96 738.025 581.904L737.731 583.108C738.011 583.22 738.403 583.318 738.921 583.318ZM740.419 570.858C741.007 570.858 741.427 570.48 741.427 569.892C741.427 569.318 741.007 568.94 740.419 568.94C739.831 568.94 739.425 569.318 739.425 569.892C739.425 570.48 739.831 570.858 740.419 570.858ZM746.748 580.182C748.652 580.182 750.374 578.712 750.374 576.15C750.374 573.588 748.652 572.104 746.748 572.104C744.844 572.104 743.122 573.588 743.122 576.15C743.122 578.712 744.844 580.182 746.748 580.182ZM746.748 578.866C745.544 578.866 744.788 577.788 744.788 576.15C744.788 574.526 745.544 573.434 746.748 573.434C747.966 573.434 748.722 574.526 748.722 576.15C748.722 577.788 747.966 578.866 746.748 578.866ZM755.852 580.182C757.588 580.182 759.17 578.67 759.17 576.024C759.17 573.658 758.064 572.104 756.118 572.104C755.306 572.104 754.48 572.538 753.822 573.112L753.878 571.796V568.842H752.268V580H753.528L753.682 579.202H753.724C754.382 579.818 755.152 580.182 755.852 580.182ZM755.544 578.852C755.068 578.852 754.466 578.67 753.878 578.152V574.386C754.508 573.756 755.096 573.448 755.698 573.448C756.986 573.448 757.504 574.442 757.504 576.052C757.504 577.858 756.664 578.852 755.544 578.852ZM761.506 582.786C762.822 580.658 763.592 578.404 763.592 575.618C763.592 572.86 762.822 570.578 761.506 568.464L760.498 568.898C761.702 570.914 762.262 573.28 762.262 575.618C762.262 577.97 761.702 580.336 760.498 582.338L761.506 582.786Z" fill="#999999"/>
<path d="M22.9602 301.86H29.3002V300.18H20.9002V312.12H22.3802C25.6402 312.12 28.0802 312.02 30.8202 311.52L30.6002 309.82C28.0802 310.26 25.8802 310.38 22.9602 310.4V301.86ZM36.9802 305.42H34.1602V298.46H32.1002V316.56H34.1602V307.12H36.9802V305.42ZM40.8186 303.82C40.8186 302.26 41.9986 301.24 43.5986 301.24C45.2186 301.24 46.3986 302.26 46.3986 303.82C46.3986 305.4 45.2186 306.4 43.5986 306.4C41.9986 306.4 40.8186 305.4 40.8186 303.82ZM48.4186 303.82C48.4186 301.28 46.3586 299.52 43.5986 299.52C40.8586 299.52 38.7986 301.28 38.7986 303.82C38.7986 306.36 40.8586 308.14 43.5986 308.14C46.3586 308.14 48.4186 306.36 48.4186 303.82ZM46.8586 314.9C44.3386 314.9 42.8786 314.26 42.8786 313.08C42.8786 311.88 44.3386 311.24 46.8586 311.24C49.3786 311.24 50.8386 311.88 50.8386 313.08C50.8386 314.26 49.3786 314.9 46.8586 314.9ZM46.8586 309.6C43.1586 309.6 40.8386 310.9 40.8386 313.08C40.8386 315.24 43.1586 316.54 46.8586 316.54C50.5786 316.54 52.8786 315.24 52.8786 313.08C52.8786 310.9 50.5786 309.6 46.8586 309.6ZM55.1786 302.64V300.94H52.6786V298.46H50.6186V309.1H52.6786V306.54H55.1786V304.84H52.6786V302.64H55.1786ZM69.877 309.12H71.937V298.46H69.877V302.08H66.217V303.76H69.877V309.12ZM67.697 306.78C64.957 305.88 63.457 303.62 63.457 301.12V299.44H61.377V301.22C61.377 303.86 59.797 306.3 56.897 307.28L57.977 308.94C60.157 308.16 61.677 306.58 62.477 304.58C63.257 306.34 64.657 307.7 66.597 308.4L67.697 306.78ZM65.917 314.92C63.357 314.92 61.897 314.26 61.897 313.08C61.897 311.9 63.357 311.24 65.917 311.24C68.477 311.24 69.957 311.9 69.957 313.08C69.957 314.26 68.477 314.92 65.917 314.92ZM65.917 309.62C62.157 309.62 59.837 310.9 59.837 313.08C59.837 315.26 62.157 316.54 65.917 316.54C69.697 316.54 72.017 315.26 72.017 313.08C72.017 310.9 69.697 309.62 65.917 309.62ZM83.5355 300.3C86.3355 300.3 87.8355 300.84 87.8355 301.88C87.8355 302.9 86.3355 303.44 83.5355 303.44C80.7355 303.44 79.2355 302.9 79.2355 301.88C79.2355 300.84 80.7355 300.3 83.5355 300.3ZM83.5355 304.98C87.5755 304.98 89.9755 303.88 89.9755 301.88C89.9755 299.86 87.5755 298.76 83.5355 298.76C79.4755 298.76 77.0955 299.86 77.0955 301.88C77.0955 303.88 79.4755 304.98 83.5355 304.98ZM79.3755 313.3H89.6555V308.98H77.2955V310.54H87.6355V311.84H77.3355V316.38H90.1755V314.8H79.3755V313.3ZM75.3555 306.04V307.68H91.7155V306.04H75.3555ZM99.9061 306.58C103.026 306.18 105.446 304.72 106.406 302.72C107.386 304.72 109.826 306.18 112.966 306.58L113.726 304.94C110.326 304.52 107.946 302.82 107.786 300.96H113.106V299.32H99.7661V300.96H105.046C104.886 302.82 102.546 304.52 99.1261 304.94L99.9061 306.58ZM102.386 311.06H100.306V316.2H112.766V314.52H102.386V311.06ZM107.426 308.08V305.32H105.366V308.08H98.2461V309.74H114.626V308.08H107.426ZM118.205 305.9C121.365 305.56 123.845 304.26 124.825 302.4C125.785 304.26 128.265 305.56 131.445 305.9L132.165 304.28C128.825 303.94 126.505 302.54 126.225 300.92H131.505V299.26H118.165V300.92H123.405C123.125 302.54 120.805 303.94 117.465 304.28L118.205 305.9ZM128.925 313.34C128.925 314.38 127.425 314.96 124.785 314.96C122.145 314.96 120.665 314.38 120.665 313.34C120.665 312.26 122.145 311.7 124.785 311.7C127.425 311.7 128.925 312.26 128.925 313.34ZM132.985 308.46V306.82H116.645V308.46H123.785V310.12C120.505 310.32 118.565 311.46 118.565 313.34C118.565 315.38 120.905 316.54 124.785 316.54C128.685 316.54 131.005 315.38 131.005 313.34C131.005 311.46 129.105 310.34 125.845 310.14V308.46H132.985ZM140.323 310.96C138.863 310.96 137.803 309.96 137.803 308.44C137.803 306.92 138.863 305.92 140.323 305.92C141.783 305.92 142.843 306.92 142.843 308.44C142.843 309.96 141.783 310.96 140.323 310.96ZM140.323 304.22C137.723 304.22 135.843 305.98 135.843 308.44C135.843 310.92 137.723 312.66 140.323 312.66C142.903 312.66 144.803 310.92 144.803 308.44C144.803 305.98 142.903 304.22 140.323 304.22ZM141.323 298.76H139.263V301.26H134.963V302.94H145.543V301.26H141.323V298.76ZM151.863 305.74H149.083V298.48H147.003V316.56H149.083V307.46H151.863V305.74ZM167.961 303.66H157.621V299.12H155.561V305.34H167.961V303.66ZM157.501 310.82H155.441V316.14H168.061V314.48H157.501V310.82ZM153.441 307.5V309.16H169.841V307.5H153.441ZM59.177 332.18C59.177 330.7 60.337 329.72 61.937 329.72C63.497 329.72 64.657 330.7 64.657 332.18C64.657 333.66 63.497 334.64 61.937 334.64C60.337 334.64 59.177 333.66 59.177 332.18ZM69.857 331.1V333.2H66.497C66.577 332.88 66.617 332.52 66.617 332.18C66.617 331.8 66.577 331.44 66.477 331.1H69.857ZM69.857 334.82V336.64H71.937V327.46H69.857V329.48H65.597C64.757 328.56 63.457 328.02 61.937 328.02C59.217 328.02 57.217 329.74 57.217 332.18C57.217 334.6 59.217 336.34 61.937 336.34C63.477 336.34 64.817 335.76 65.637 334.82H69.857ZM62.237 343.7V342.1H71.937V337.5H60.177V339.1H69.897V340.58H60.197V345.32H72.537V343.7H62.237ZM90.2555 327.5H88.1755V340.8H90.2555V327.5ZM86.3355 336.1C83.7955 336.56 81.6155 336.66 78.3355 336.68V334.2H84.5155V328.72H76.2555V330.38H82.4955V332.64H76.2955V338.36H77.8155C81.4555 338.36 83.8155 338.26 86.5555 337.76L86.3355 336.1ZM80.4155 343.52V339.74H78.3555V345.2H90.7355V343.52H80.4155ZM103.686 332.38H106.846V330.7H103.686V328.1H101.726V330.7H98.5461V332.38H101.726V333C101.726 335.86 100.506 338.94 98.0461 340.4L99.2261 341.94C100.946 340.94 102.086 339.12 102.726 337.02C103.386 338.96 104.546 340.62 106.246 341.52L107.386 339.98C104.906 338.66 103.686 335.8 103.686 333V332.38ZM111.806 327.48V334.6H109.826V327.82H107.886V344.7H109.826V336.3H111.806V345.54H113.766V327.48H111.806ZM124.785 343.96C122.145 343.96 120.665 343.4 120.665 342.3C120.665 341.22 122.145 340.64 124.785 340.64C127.425 340.64 128.925 341.22 128.925 342.3C128.925 343.4 127.425 343.96 124.785 343.96ZM124.785 339.06C120.905 339.06 118.565 340.24 118.565 342.3C118.565 344.38 120.905 345.54 124.785 345.54C128.685 345.54 131.005 344.38 131.005 342.3C131.005 340.24 128.685 339.06 124.785 339.06ZM122.585 334.42C123.245 334.52 124.025 334.58 124.825 334.58C125.625 334.58 126.365 334.52 127.025 334.42V336.26H122.585V334.42ZM124.825 329.38C127.505 329.38 129.125 330.02 129.125 331.18C129.125 332.34 127.505 333 124.825 333C122.125 333 120.505 332.34 120.505 331.18C120.505 330.02 122.125 329.38 124.825 329.38ZM129.085 336.26V333.88C130.465 333.28 131.265 332.36 131.265 331.18C131.265 329.06 128.765 327.78 124.825 327.78C120.865 327.78 118.385 329.06 118.385 331.18C118.385 332.36 119.165 333.28 120.525 333.86V336.26H116.645V337.9H132.985V336.26H129.085Z" fill="#333333"/>
<path d="M1041.34 300.18V312.12H1049.82V300.18H1041.34ZM1047.8 301.82V310.46H1043.36V301.82H1047.8ZM1053.16 298.46V316.58H1055.24V298.46H1053.16ZM1061.32 306.98H1066.08V300.34H1059.3V302.02H1064.1V305.32H1059.34V312.36H1060.56C1062.78 312.36 1064.78 312.3 1067.2 311.88L1067.02 310.2C1064.96 310.54 1063.2 310.64 1061.32 310.66V306.98ZM1072.22 298.48V305.46H1070.08V298.84H1068.14V315.64H1070.08V307.14H1072.22V316.52H1074.18V298.48H1072.22ZM1089.44 301.56H1079.26V305.62H1091.8V304.18H1081.28V302.9H1091.48V298.92H1079.22V300.34H1089.44V301.56ZM1081.14 313.54H1091.54V309.5H1079.06V310.92H1089.5V312.2H1079.1V316.34H1092.08V314.92H1081.14V313.54ZM1077.16 306.76V308.28H1093.54V306.76H1077.16ZM1112.97 311.92H1115.03V298.48H1112.97V302.54H1109.31V304.24H1112.97V311.92ZM1110.73 307.48C1108.03 306.5 1106.51 304.16 1106.51 301.72V299.58H1104.41V301.68C1104.41 304.36 1102.85 306.9 1100.03 307.9L1101.13 309.5C1103.21 308.7 1104.71 307.1 1105.51 305.08C1106.27 306.9 1107.69 308.36 1109.63 309.08L1110.73 307.48ZM1105.35 314.52V310.5H1103.27V316.2H1115.45V314.52H1105.35ZM1127.65 312.68V308.42H1132.99V306.76H1122.53V301.5H1132.83V299.84H1120.47V308.42H1125.59V312.68H1118.47V314.38H1134.83V312.68H1127.65ZM1142.12 310.96C1140.66 310.96 1139.6 309.96 1139.6 308.44C1139.6 306.92 1140.66 305.92 1142.12 305.92C1143.58 305.92 1144.64 306.92 1144.64 308.44C1144.64 309.96 1143.58 310.96 1142.12 310.96ZM1142.12 304.22C1139.52 304.22 1137.64 305.98 1137.64 308.44C1137.64 310.92 1139.52 312.66 1142.12 312.66C1144.7 312.66 1146.6 310.92 1146.6 308.44C1146.6 305.98 1144.7 304.22 1142.12 304.22ZM1143.12 298.76H1141.06V301.26H1136.76V302.94H1147.34V301.26H1143.12V298.76ZM1153.66 305.74H1150.88V298.48H1148.8V316.56H1150.88V307.46H1153.66V305.74ZM1169.76 303.66H1159.42V299.12H1157.36V305.34H1169.76V303.66ZM1159.3 310.82H1157.24V316.14H1169.86V314.48H1159.3V310.82ZM1155.24 307.5V309.16H1171.64V307.5H1155.24ZM1068.4 332.32V334.02H1071.68V340.7H1073.74V327.5H1071.68V332.32H1068.4ZM1069.52 336.54C1066.82 335.6 1065.28 333.34 1065.28 331.12V330.5H1069.04V328.84H1059.38V330.5H1063.2V331.12C1063.2 333.56 1061.56 335.94 1058.76 336.92L1059.82 338.54C1061.96 337.8 1063.48 336.22 1064.28 334.26C1065.04 336.04 1066.5 337.46 1068.5 338.14L1069.52 336.54ZM1064.1 343.52V339.56H1062.04V345.2H1074.2V343.52H1064.1ZM1089.4 333.16H1081.26V329.92H1089.4V333.16ZM1091.42 328.28H1079.24V334.8H1091.42V328.28ZM1081.22 339.98H1079.16V345.2H1091.72V343.52H1081.22V339.98ZM1077.16 336.58V338.24H1084.48V341.62H1086.54V338.24H1093.54V336.58H1077.16ZM1096.45 329.38V331.06H1102.77C1102.35 335.22 1099.97 338.4 1095.55 340.66L1096.69 342.24C1102.59 339.26 1104.83 334.62 1104.83 329.38H1096.45ZM1112.29 334.6H1109.55V327.46H1107.49V345.52H1109.55V336.32H1112.29V334.6ZM1124.13 339.46H1121.01V335.02H1124.13V339.46ZM1124.13 333.38H1121.01V329.14H1119.07V341.14H1126.05V329.14H1124.13V333.38ZM1131.93 327.46V334.52H1129.87V327.82H1127.93V344.7H1129.87V336.2H1131.93V345.54H1133.89V327.48L1131.93 327.46ZM1138.22 334.68C1141.42 334.46 1143.86 333.58 1145 332.06C1146.14 333.58 1148.62 334.46 1151.82 334.68L1152.38 333.14C1148.86 332.94 1146.62 331.94 1146.22 330.52H1151.56V328.98H1146.04V327.4H1143.98V328.98H1138.48V330.52H1143.8C1143.4 331.94 1141.18 332.94 1137.62 333.14L1138.22 334.68ZM1153.18 336.88V335.34H1136.88V336.88H1143.98V338.28H1138.78V339.8H1149.12V341.06H1138.82V345.38H1151.66V343.84H1140.86V342.48H1151.14V338.28H1146.04V336.88H1153.18Z" fill="#333333"/>
<circle cx="879" cy="315" r="18" fill="white"/>
<circle cx="879" cy="315" r="17" stroke="#1979BD" stroke-opacity="0.8" stroke-width="2"/>
<circle cx="321" cy="315" r="18" fill="white"/>
<circle cx="321" cy="315" r="17" stroke="#1979BD" stroke-opacity="0.8" stroke-width="2"/>
<defs>
<linearGradient id="paint0_linear_304_172" x1="0" y1="409" x2="190" y2="409" gradientUnits="userSpaceOnUse">
<stop stop-color="#1979BD"/>
<stop offset="1" stop-color="#8CBCDE"/>
</linearGradient>
<linearGradient id="paint1_linear_304_172" x1="1200" y1="409" x2="1010" y2="409" gradientUnits="userSpaceOnUse">
<stop stop-color="#1979BD"/>
<stop offset="1" stop-color="#8CBCDE"/>
</linearGradient>
</defs>
</svg>
